<svg id="Ebene_1" data-name="Ebene 1" xmlns="http://www.w3.org/2000/svg" viewBox="0 0 46 46" style="background-color: #E30613; fill: #fff;">
    <path class="cls-1" d="M20.48,20.62A2.6,2.6,0,0,1,21,19.08a5.17,5.17,0,0,0,.46-.66,3.57,3.57,0,0,0,.17-1.17c.09-2.29.22-5.17.27-6.7a26.7,26.7,0,0,1,0-3.9,1.84,1.84,0,0,1,2.61-1.47,22.92,22.92,0,0,1,2.83,1.55l.13.07c.44.27.18.47.09.51h-.05l-2.87.84a.85.85,0,0,0-.38.19.91.91,0,0,0-.17.47,71.5,71.5,0,0,0,.22,8.43,6.2,6.2,0,0,0,.18,1.17,4.27,4.27,0,0,0,.45.66,2.63,2.63,0,0,1,.53,1.5,2.52,2.52,0,1,1-5,0Zm9.1-8.12A10.89,10.89,0,0,0,25.76,18c.06.09.16.21.23.3a4.09,4.09,0,0,1,.81,2.24v.12a3.8,3.8,0,1,1-7.6,0V20.5A4,4,0,0,1,20,18.26s.17-.21.23-.3a10.89,10.89,0,0,0-3.82-5.46c-4,1.79-7.42,5.24-7.42,10,0,5.95,5.32,9.91,10.58,11-.25-1.31-.73-3.86-.73-3.86a1.59,1.59,0,0,1,.42-1.37,1.5,1.5,0,0,1,1.32-.41l.22.05a8.3,8.3,0,0,0,2.19.33,8.3,8.3,0,0,0,2.19-.33l.22-.05a1.5,1.5,0,0,1,1.32.41,1.59,1.59,0,0,1,.42,1.37s-.48,2.55-.73,3.86c5.26-1.08,10.58-5,10.58-11C37,17.74,33.56,14.29,29.58,12.5Zm-5,26.67-.06,0s0,0-.05,0a.69.69,0,0,1-.29-.52,1.25,1.25,0,0,1,0-.2s1.17-6.35,1.65-8.93a.21.21,0,0,0-.25-.28,9.83,9.83,0,0,1-2.62.4,9.44,9.44,0,0,1-2.62-.4.22.22,0,0,0-.26.28c.49,2.58,1.66,8.93,1.66,8.93a1.25,1.25,0,0,1,0,.2.68.68,0,0,1-.29.52l-.05,0-.06,0-4.18,2.14a.19.19,0,0,0-.09.15v.37a.17.17,0,0,0,.16.17h4a.14.14,0,0,0,.12-.06l1.6-2.1,1.59,2.1a.19.19,0,0,0,.13.06h4a.17.17,0,0,0,.16-.17v-.37a.22.22,0,0,0-.09-.15Z"/>
</svg>
